<?xml version="1.0" encoding="UTF-8" standalone="no"?>
<!-- Created with Inkscape (http://www.inkscape.org/) -->

<svg
   xmlns:dc="http://purl.org/dc/elements/1.1/"
   xmlns:cc="http://creativecommons.org/ns#"
   xmlns:rdf="http://www.w3.org/1999/02/22-rdf-syntax-ns#"
   xmlns:svg="http://www.w3.org/2000/svg"
   xmlns="http://www.w3.org/2000/svg"
   version="1.1"
   width="1500"
   height="1527"
   id="svg2">
  <metadata
     id="metadata8">
    <rdf:RDF>
      <cc:Work
         rdf:about="">
        <dc:format>image/svg+xml</dc:format>
        <dc:type
           rdf:resource="http://purl.org/dc/dcmitype/StillImage" />
        <dc:title></dc:title>
      </cc:Work>
    </rdf:RDF>
  </metadata>
  <defs
     id="defs6" />
  <path
     d="m 773.2627,1463.9503 c -4.54859,-1.4063 -4.87547,-3.8131 -3.0491,-22.4503 0.86236,-8.8 1.61508,-17.35 1.6727,-19 0.104,-2.9778 0.7733,-7 1.16481,-7 1.21795,-5.2526 2.09906,-9.3055 2.99749,-12.8355 -2.87177,-53.9939 -7.22949,-94.6093 -16.65928,-144.6645 -1.5917,-9.1519 -3.0852,-18.988 -4.33619,-27.6085 -1.35906,-9.5593 -1.84965,-12.7736 -4.56227,-29.8915 -1.30735,-8.25 -2.68495,-17.25 -3.06135,-20 -0.76073,-4.2069 -1.85152,-8.7209 -2.09138,-12.4072 -0.4611,-7.3779 -0.87302,-10.4945 -2.25912,-17.0928 -0.63547,-3.025 -2.06653,-12.475 -3.18016,-21 -2.34986,-17.9887 -2.5711,-19.5 -2.85457,-19.5 -0.21308,0 -0.45746,-1.2506 -1.43749,-7.3565 -0.89929,-5.6029 -2.24885,-6.4488 -12.1068,-7.5892 -2.2,-0.2545 -7.95176,-1.0214 -12.78168,-1.7043 -12.46914,-1.7628 -21.8197,-0.2368 -37.43402,6.1095 -6.71864,2.7307 -14.14364,5.9356 -16.5,7.1221 -4.87781,2.4561 -20.72352,12.9499 -25.41311,16.8298 -1.72085,1.4237 -5.77085,4.4747 -9,6.7798 -13.51738,9.6496 -22.73221,18.598 -34.83157,33.8248 -2.1782,2.7412 -6.9469,8.134 -10.59709,11.984 -3.6502,3.85 -8.58861,9.7 -10.97426,13 -10.59689,14.6584 -36.85111,43.0042 -43.91059,47.4087 -2.50673,1.564 -7.25768,5.2772 -10.55768,8.2514 -3.3,2.9743 -7.91529,6.895 -10.2562,8.7128 -4.15853,3.2291 -13.35407,8.3502 -13.94066,7.7636 -0.16224,-0.1623 -0.51402,-6.1972 -0.78174,-13.4111 -0.78893,-21.2585 -2.13189,-24.3282 -12.43611,-28.4262 -4.69429,-1.867 -7.41984,-2.2082 -17.08529,-2.1391 -10.29007,0.073 -13.02556,0.5127 -26,4.1745 -28.59208,8.0697 -38.54375,10.9754 -41.33126,12.068 -5.18796,2.0334 -25.76779,5.2346 -34.04502,5.2957 -10.47502,0.077 -14.76178,-0.8257 -14.39808,-3.0331 0.19944,-1.2105 -0.36284,-1.5961 -2.05908,-1.4122 -1.28339,0.1391 -3.08339,-0.1781 -4,-0.705 -1.37297,-0.7892 -1.07641,-1.0795 1.6835,-1.648 3.05817,-0.6299 3.7199,-1.4833 7.59499,-9.795 2.33471,-5.0078 6.23571,-11.58 8.66888,-14.605 8.33835,-10.3665 10.15716,-13.2278 13.5761,-21.3574 5.93014,-14.1007 6.54352,-16.5035 6.12116,-23.9783 -0.38413,-6.7982 -0.50111,-7.0623 -4.85241,-10.9583 -8.92254,-7.989 -16.41013,-9.6504 -35.2152,-7.8142 -8.98053,0.8769 -12.65282,0.8573 -16.18037,-0.086 -4.26856,-1.1417 -5.99731,-3.161 -3.43684,-4.0145 0.74897,-0.2496 0.44657,-1.708 -0.90251,-4.3524 -1.37565,-2.6965 -4.55554,-5.786 -9.87637,-9.5955 -15.71375,-11.2506 -28.56588,-16.0556 -47.79994,-17.8706 -6.07615,-0.5734 -13.29755,-1.4997 -16.04755,-2.0584 -2.75,-0.5588 -11.075,-2.1211 -18.5,-3.4718 -7.425,-1.3507 -16.65,-3.5477 -20.5,-4.8822 -6.42364,-2.2265 -36.81259,-7.922 -39.74162,-7.4483 -0.69211,0.1119 -1.93338,-0.053 -2.75838,-0.3662 -0.825,-0.3132 -5.775,-1.092 -11,-1.7306 -5.225,-0.6385 -13.24803,-2.0282 -17.82896,-3.0881 -4.58092,-1.0599 -9.46657,-1.9271 -10.85699,-1.9271 -1.90577,0 -2.37701,-0.3936 -1.91449,-1.5989 0.45238,-1.1788 -0.602,-0.8865 -4.01403,1.1131 -2.81662,1.6507 -4.45076,2.1785 -4.17573,1.3489 0.5279,-1.5925 10.79508,-9.763 12.3432,-9.8226 0.57915,-0.022 2.82915,-1.3441 5,-2.9373 10.66397,-7.8266 27.14774,-16.6848 37.59351,-20.2022 2.00558,-0.6754 6.05558,-2.949 9,-5.0524 2.94442,-2.1035 7.15349,-4.7935 9.35349,-5.9779 2.2,-1.1843 6.54027,-3.8372 9.64503,-5.8953 6.33699,-4.2007 12.72787,-7.6915 20.85497,-11.3912 7.0206,-3.196 16.78857,-8.6085 21.68466,-12.0156 5.2471,-3.6513 14.78279,-9.3951 20.98718,-12.64147 2.84451,-1.48836 6.71199,-3.88084 8.59439,-5.31662 1.8824,-1.43578 3.78512,-2.61051 4.22827,-2.61051 2.7085,0 21.67253,-13.58619 32.03794,-22.95258 2.76784,-2.50108 6.78648,-5.89742 8.93031,-7.54742 4.46699,-3.43803 11.02741,-13.06626 12.69463,-18.63094 1.6202,-5.40776 -0.54059,-14.90492 -4.60297,-20.23105 -4.15238,-5.44414 -9.23982,-8.76298 -20.05441,-13.08271 -9.46178,-3.77936 -13.17284,-6.08924 -13.68896,-8.52043 -0.17107,-0.80583 -1.16341,-2.19 -2.2052,-3.07595 -1.84919,-1.57256 -1.83402,-1.71583 0.63904,-6.03486 3.70289,-6.46686 5.01985,-11.39764 4.25436,-15.92855 -1.05292,-6.2322 -12.77028,-17.99943 -35.89059,-36.04335 -3.90976,-3.05132 -8.00078,-7.19248 -9.09117,-9.20259 l -1.98252,-3.65473 2.55784,-2.79742 c 1.40681,-1.53858 4.0768,-5.22761 5.93329,-8.19784 3.23707,-5.17903 3.39181,-5.87597 3.77453,-17 0.52744,-15.33102 -3.10234,-35.04368 -8.28836,-45.01252 -1.88471,-3.62288 -5.92102,-11.92997 -8.96958,-18.46019 -6.8176,-14.60372 -12.61567,-22.87703 -20.49612,-29.24604 -3.3215,-2.68446 -6.04077,-5.39519 -6.04283,-6.02384 -0.002,-0.62866 -0.74314,-1.42675 -1.64686,-1.77354 -1.9127,-0.73397 -0.98093,-2.05213 1.46371,-2.0707 2.05861,-0.0156 4.86966,-5.53136 6.05638,-11.88356 1.76249,-9.43416 -3.89183,-27.39801 -12.71208,-40.38639 -2.20435,-3.24606 -5.67432,-9.01612 -7.71103,-12.82236 C 189.41714,625.6142 183.14723,615.525 177.52073,607 c -5.62651,-8.525 -12.56224,-19.775 -15.41275,-25 -2.8505,-5.225 -9.48238,-16.475 -14.73751,-25 -9.43838,-15.31118 -16.86465,-29.72013 -19.32724,-37.5 -0.69637,-2.2 -1.82275,-4.9 -2.50306,-6 -0.6803,-1.1 -1.82034,-3.8 -2.53341,-6 -0.71307,-2.2 -2.3748,-5.29401 -3.69273,-6.87557 -2.97757,-3.5732 -2.33441,-4.46519 1.37839,-1.91168 1.54417,1.06201 6.66842,3.16431 11.38723,4.67177 4.71881,1.50747 12.14381,4.80747 16.5,7.33334 4.35619,2.52588 10.39535,5.93992 13.42035,7.58676 3.025,1.64685 6.4,3.79708 7.5,4.77829 1.1,0.98122 4.925,3.15857 8.5,4.83857 3.575,1.67999 8.975,4.805 12,6.94447 6.1619,4.35807 30.52705,18.13405 32.07314,18.13405 0.54878,0 5.14433,1.97632 10.21232,4.39182 5.068,2.4155 10.78954,4.72155 12.71454,5.12455 1.925,0.403 8.45,2.63898 14.5,4.96884 11.76563,4.53094 19.57194,6.91866 26,7.95263 5.84318,0.93988 9.42279,2.26401 21.98102,8.13097 10.74076,5.01788 21.55386,8.28277 30.01898,9.06389 3.94176,0.36373 11.15046,2.13989 16.5,4.06546 5.225,1.88074 12.425,4.01755 16,4.74846 3.575,0.73091 11.675,2.53685 18,4.0132 18.32612,4.27758 28.43055,2.44855 40.47438,-7.32639 4.41418,-3.5826 5.15507,-3.87376 6.57875,-2.58535 0.88239,0.79855 1.9671,1.45192 2.41047,1.45192 0.44336,0 -0.37957,-0.93266 -1.82874,-2.07258 -2.27275,-1.78774 -3.6339,-4.92742 -2.1362,-4.92742 0.27426,0 3.1799,2.08218 6.45698,4.62706 5.75361,4.46808 14.0362,14.49083 17.3916,21.04556 0.89325,1.74493 3.31804,5.1821 5.38842,7.63814 2.07039,2.45604 5.46338,6.61716 7.53998,9.24692 2.07661,2.62977 5.03974,5.7176 6.58474,6.86186 1.545,1.14425 4.90846,3.62959 7.47435,5.52296 2.5659,1.89338 4.66527,3.93874 4.66527,4.54526 0,0.60651 2.8125,2.54506 6.25,4.30788 6.78192,3.47792 13.68646,4.18282 21.0207,2.14606 4.11768,-1.1435 8.00054,-5.92787 9.75789,-12.02347 2.40167,-8.3305 0.83015,-33.93931 -2.65382,-43.24545 -0.85919,-2.29503 -2.80802,-7.77278 -4.33073,-12.17278 -1.52271,-4.4 -6.41129,-14.975 -10.86351,-23.5 -4.45223,-8.525 -10.1934,-19.55 -12.75818,-24.5 -9.71164,-18.74344 -15.20511,-35.89111 -15.96939,-49.84793 -0.19217,-3.50918 -0.94667,-6.54013 -1.8866,-7.57874 -0.8615,-0.95195 -1.54807,-2.37038 -1.52572,-3.15207 0.0233,-0.81643 1.22462,-0.0382 2.82283,1.82874 1.5302,1.7875 3.44237,3.25 4.24926,3.25 0.80689,0 4.14912,0.70735 7.42717,1.57188 19.05971,5.02671 36.88241,5.9367 46.4601,2.37216 6.33451,-2.35752 9.34808,-4.75674 14.53376,-11.57091 2.03969,-2.68022 3.99407,-5.09813 4.34307,-5.37313 2.77489,-2.18651 6.76602,-9.61399 10.0472,-18.69779 2.14604,-5.94122 4.66869,-12.60122 5.60589,-14.80002 1.52033,-3.5669 4.24406,-18.08797 6.00267,-32.00219 0.34757,-2.75 1.27259,-6.93606 2.05559,-9.30236 0.783,-2.36629 1.15952,-5.3547 0.8367,-6.6409 -0.32281,-1.2862 -0.15163,-2.60758 0.3804,-2.9364 0.53204,-0.32881 1.18154,0.22126 1.44334,1.2224 0.53914,2.06165 6.91708,4.17118 13.34771,4.4148 3.07213,0.11639 6.28831,-0.95904 12.86311,-4.30117 7.03868,-3.57794 9.83052,-5.70181 14.16326,-10.77459 2.96808,-3.47502 6.02118,-7.52502 6.78469,-9 0.76351,-1.47498 2.96306,-5.02096 4.8879,-7.87995 1.92484,-2.859 4.30838,-7.359 5.29675,-10 0.98838,-2.64101 3.88701,-8.17683 6.44141,-12.30183 7.38305,-11.9226 9.80667,-16.60556 13.63997,-26.35542 1.97743,-5.02952 4.94191,-11.84458 6.58774,-15.14458 2.99931,-6.01382 13.45015,-22.24756 16.7381,-26 2.87448,-3.28056 6.7364,-13.39938 8.53406,-22.36054 0.37078,-1.8483 2.59696,-7.79028 4.94707,-13.20441 2.35011,-5.41412 5.49126,-14.25188 6.98035,-19.63946 1.48908,-5.38757 4.04452,-13.84559 5.67874,-18.79559 1.63423,-4.95 3.36538,-11.925 3.84699,-15.5 0.48162,-3.575 1.81717,-10.55 2.96788,-15.5 1.15071,-4.95 3.00602,-13.725 4.12291,-19.5 3.65661,-18.90696 6.16355,-28.38059 9.56928,-36.162 1.8444,-4.2141 3.35346,-7.98433 3.35346,-8.37828 0,-0.39394 1.40211,-3.166905 3.11581,-6.16213 l 3.1158,-5.445864 1.71123,2.824137 c 0.94117,1.553275 2.55002,5.074137 3.57522,7.824137 1.0252,2.75 2.41588,5.9 3.0904,7 2.01345,3.28352 6.17665,18.24733 8.34653,30 3.36879,18.24636 5.81853,29.85405 6.88236,32.61109 0.55414,1.4361 1.30135,5.4828 1.66048,8.99266 0.35912,3.50987 2.34372,11.55988 4.41022,17.88891 2.0665,6.32904 4.33194,13.98234 5.0343,17.00734 0.70237,3.025 2.74044,8.875 4.52905,13 3.34159,7.70656 5.22335,13.01505 10.03452,28.30753 1.52401,4.84414 3.80552,10.24414 5.07002,12 10.00187,13.88846 16.55869,24.88744 21.12455,35.43615 2.91473,6.73402 5.29951,12.61971 5.29951,13.07931 0,0.93749 7.01745,13.29314 11.45963,20.17701 1.59713,2.475 3.73276,6.67043 4.74585,9.32317 1.01308,2.65274 4.5313,9.04909 7.81825,14.21411 3.28695,5.16502 5.97627,9.75868 5.97627,10.20814 0,2.24322 12.31148,12.52705 19.5,16.28841 7.63421,3.99458 8.28629,4.15676 14.26116,3.54708 C 891.47247,389.79404 895,388.52093 895,386.52475 895,385.68614 895.50625,385 896.125,385 c 0.71899,0 0.90643,1.09285 0.51937,3.02817 -0.33904,1.69517 0.0124,4.66651 0.79833,6.75 1.31768,3.49309 3.63124,16.76412 5.09429,29.22183 0.35526,3.025 2.21039,9.55 4.12252,14.5 1.91212,4.95 4.39108,11.475 5.5088,14.5 1.11772,3.025 2.44823,6.625 2.95669,8 0.50846,1.375 4.85084,7.2072 9.64973,12.96044 7.96795,9.55253 9.24604,10.65233 14.72527,12.67122 10.00027,3.68471 28.66909,2.80285 46.08789,-2.17707 2.79834,-0.80002 6.03803,-1.45459 7.19932,-1.45459 1.16128,0 3.48214,-1.4625 5.15748,-3.25 2.15301,-2.29718 3.04741,-2.77284 3.05071,-1.62244 0,0.89515 -0.6704,2.18775 -1.4954,2.87244 -0.88227,0.73222 -1.50823,2.94471 -1.51999,5.37244 -0.0389,8.04087 -2.75924,20.26846 -6.925,31.12756 -4.72594,12.31933 -14.01059,31.5 -15.24799,31.5 -0.44386,0 -0.80979,0.5625 -0.81318,1.25 -0.003,0.6875 -0.73881,2.6 -1.63428,4.25 -7.3911,13.61897 -12.84822,25.04457 -15.35772,32.1545 -1.63512,4.63265 -3.38068,9.19306 -3.87902,10.13425 -0.49834,0.94119 -1.17808,3.73625 -1.51053,6.21125 -0.33245,2.475 -1.02455,5.9616 -1.53799,7.74799 -0.51345,1.7864 -0.85271,9.4364 -0.75392,17 0.16518,12.64674 0.38055,14.10656 2.67962,18.16343 3.85391,6.80048 6.45883,8.2435 15.21672,8.42943 6.42403,0.13638 8.37519,-0.26054 13.63983,-2.77472 3.3789,-1.61363 6.14345,-3.52048 6.14345,-4.23745 0,-0.71698 1.6875,-2.43735 3.75,-3.82306 2.0625,-1.38571 5.50655,-3.8679 7.65343,-5.51599 4.32647,-3.3213 17.16757,-18.98366 21.30797,-25.98963 4.4955,-7.60659 10.7984,-15.01096 16.7629,-19.69234 5.3708,-4.21533 8.337,-5.19512 5.5458,-1.83183 -0.9002,1.08463 -0.9328,1.52417 -0.1131,1.52417 0.6335,0 3.4745,1.83593 6.3132,4.07984 7.8329,6.1915 13.7633,8.81542 21.4722,9.5003 5.8887,0.52317 9.4398,-0.0168 26.3076,-4.00043 10.725,-2.53287 23.0035,-5.9648 27.2855,-7.6265 4.6209,-1.79318 10.5149,-3.23173 14.5,-3.53902 7.5042,-0.57862 18.1683,-3.44967 25.7145,-6.92294 18.8671,-8.68397 23.6317,-10.45587 28.172,-10.4767 1.7445,-0.008 7.1445,-1.42742 12,-3.15426 4.8554,-1.72684 14.903,-5.25965 22.328,-7.85067 13.6718,-4.77093 15.7813,-5.64686 31,-12.87265 10.9774,-5.21202 27.493,-14.59441 32.1343,-18.25522 1.9989,-1.57661 5.8461,-3.89129 8.5494,-5.14373 2.7032,-1.25244 7.444,-3.95585 10.5351,-6.00759 3.0911,-2.05174 5.9254,-3.73043 6.2986,-3.73043 0.3731,0 4.6142,-2.4346 9.4247,-5.41023 5.1802,-3.20431 12.9891,-6.85592 19.1521,-8.95593 5.7232,-1.95013 11.4565,-4.46552 12.7408,-5.58977 4.0704,-3.56334 4.4977,-1.7813 0.665,2.77356 -1.375,1.6341 -2.5,3.5339 -2.5,4.22179 0,0.6879 -1.575,4.52528 -3.5,8.52752 -1.925,4.00224 -3.5,7.89826 -3.5,8.65783 0,2.65535 -8.1181,18.13377 -17.4507,33.27233 -5.1754,8.39523 -11.5411,19.25529 -14.1458,24.13348 -2.6048,4.87818 -9.7768,16.51942 -15.9378,25.86942 -6.161,9.35 -12.2176,19.025 -13.4591,21.5 -1.2415,2.475 -4.6702,8.21919 -7.6192,12.76487 -8.5387,13.16157 -9.7337,15.99221 -13.8179,32.73172 -1.4197,5.8185 -0.6662,11.19203 2.5197,17.9697 1.3861,2.94892 2.6687,4.45685 3.5147,4.13222 0.7326,-0.28114 1.6,-0.0776 1.9275,0.45223 0.3274,0.52986 -0.1082,1.23335 -0.968,1.56331 -0.8599,0.32996 -1.5651,1.11428 -1.5672,1.74294 0,0.62865 -2.4752,3.0517 -5.4959,5.38455 -7.2078,5.56666 -13.5548,14.34141 -19.7168,27.25846 -2.755,5.775 -7.1524,15 -9.772,20.5 -6.0617,12.7266 -8.5115,25.39058 -8.5115,44 l 0,13 3.4681,5 c 1.9075,2.75 4.5511,6.20821 5.8748,7.68492 3.9862,4.44717 1.1789,9.65434 -9.3429,17.33004 -2.2,1.60491 -8.5,6.82832 -14,11.60759 -20.5665,17.87143 -23.265,22.18509 -20.0422,32.03818 0.9532,2.91421 2.5901,6.50218 3.6376,7.97328 2.3771,3.33833 2.4014,3.04514 -0.6201,7.49747 -3.0241,4.45625 -6.3948,6.61646 -16.2394,10.40727 -8.6007,3.31181 -17.0727,9.34316 -20.175,14.36278 -2.7959,4.52384 -3.9188,16.06384 -2.0239,20.80085 1.6931,4.23284 6.8506,11.76642 9.5902,14.00862 1.17,0.95753 6.795,5.83485 12.5,10.83849 10.1989,8.94499 22.2151,17.51423 31.9421,22.77922 5.5833,3.02209 14.1077,8.16799 31.1938,18.83049 6.4697,4.0375 12.0552,7.3408 12.4121,7.3408 0.357,0 2.7136,1.2294 5.2369,2.7319 2.5234,1.5026 7.3833,3.9284 10.8,5.3907 5.5859,2.3908 15.0406,8.023 34.2879,20.4253 3.575,2.3036 8.975,5.1073 12,6.2303 3.025,1.123 6.85,2.7546 8.5,3.6257 1.65,0.8711 3.3076,1.5866 3.6836,1.5899 0.9593,0.01 9.9981,5.4803 18.4798,11.1867 3.9399,2.6507 7.4593,4.8195 7.8208,4.8195 1.642,0 13.5158,9.3332 13.5158,10.6238 0,1.0701 -0.9746,0.786 -3.7321,-1.0877 -4.2753,-2.9052 -5.4474,-3.1675 -4.6295,-1.0361 0.4041,1.0532 -0.08,1.5 -1.6243,1.5 -1.21,0 -6.5468,0.8858 -11.8597,1.9685 -10.8653,2.2142 -20.5585,3.6704 -30.1544,4.5301 -3.575,0.3203 -9.2,1.2004 -12.5,1.9559 -3.3,0.7554 -8.475,1.663 -11.5,2.0168 -6.4277,0.7518 -6.6003,0.7928 -19,4.5216 -10.024,3.0143 -32.0817,7.1824 -48,9.0703 -17.6627,2.0947 -27.9079,4.7067 -37.3464,9.5215 -12.7862,6.5226 -22.9767,14.4644 -24.9254,19.4252 -1.3833,3.5216 -1.3908,3.9901 -0.064,3.9901 3.0006,0 0.6246,2.3427 -3.7154,3.6634 -3.6049,1.0969 -6.6058,1.1382 -15.8266,0.2178 -19.104,-1.9069 -27.3692,-0.2843 -35.1906,6.9085 -4.9792,4.5789 -5.1368,4.8943 -5.6513,11.3079 -0.471,5.8716 -0.1265,7.6727 3.131,16.3685 2.0132,5.374 4.3758,11.1801 5.2503,12.9024 2.0814,4.0994 9.96,15.3926 13.16,18.8636 1.3853,1.5027 4.5797,6.9027 7.0988,12 3.9581,8.0095 4.9534,9.3109 7.33,9.5843 1.5125,0.1741 2.75,0.7366 2.75,1.25 0,0.9506 -2.0271,1.3187 -5.3423,0.9703 -1.4044,-0.1477 -1.6947,0.2713 -1.2214,1.7628 0.8637,2.721 -2.0928,3.1787 -17.9363,2.777 -10.6887,-0.2711 -15.0446,-0.8796 -24.5,-3.4229 -19.9477,-5.3653 -26.2908,-7.1616 -34,-9.6283 -29.2332,-9.3538 -45.3046,-10.8914 -57.7738,-5.5273 -9.82143,4.2251 -10.97798,7.1518 -11.65839,29.502 -0.18418,6.05 -0.72478,11.0374 -1.20134,11.0832 -2.81485,0.2702 -11.15619,-4.9759 -19.8309,-12.4723 -5.48043,-4.736 -11.78043,-9.8023 -14,-11.2584 -8.8201,-5.7862 -37.81657,-37.1338 -45.69876,-49.4042 -1.43149,-2.2284 -4.81241,-6.2784 -7.51315,-9 -4.72365,-4.7601 -13.54122,-14.9382 -19.82366,-22.8826 -5.54182,-7.0078 -13.91433,-14.6162 -27,-24.5358 -29.36199,-22.258 -32.46723,-24.0418 -60.28732,-34.6308 -8.77837,-3.3413 -15.03394,-5.4193 -29.16853,-3.4323 -5.16324,0.3766 -15.488,3.458 -16.66453,6.05 -0.92181,4.0558 -0.25054,17.126 1.13656,24.9832 0.24274,1.375 0.68687,5.875 0.98695,10 0.6324,8.6932 3.67302,32.0052 6.52159,50 1.0883,6.875 2.39295,16.1 2.89921,20.5 1.13368,9.8531 4.60446,32.4137 6.5383,42.5 0.79088,4.125 1.94541,10.875 2.56562,15 5.30473,36.5214 11.81338,76.6813 17.52882,111 2.89749,17.4402 4.6549,24.4564 7.51435,30 2.8303,5.4871 4.25021,10.4854 5.39749,19 0.69005,5.1212 1.5366,7.5534 6.20358,17.823 3.86979,8.5155 4.26989,13.7888 1.28895,16.9884 -3.99266,2.7278 -7.3458,6.4288 -11.881,8.0365 -4.76117,1.6241 -18.91781,2.308 -22.81734,1.1024 z m 268.2638,-870.75717 c -0.3079,-0.30789 -1.1148,-6.4e-4 -1.7932,0.68278 -0.9802,0.98762 -0.8654,1.10248 0.5598,0.5598 0.9862,-0.37553 1.5412,-0.93469 1.2334,-1.24258 z"
     id="path2987"
     style="fill:#a9613e" />
</svg>
